<svg width="375" height="514" viewBox="0 0 375 514" fill="none" xmlns="http://www.w3.org/2000/svg">
<path d="M18.7661 451.45L18.7771 451.461L18.7881 451.472C60.8321 491.883 117.144 512 187.5 512C231.842 512 270.889 504.465 304.596 489.336C338.167 474.267 363.958 456.628 381.85 436.361C400.207 415.654 409.765 397.377 409.765 381.626C409.765 375.972 407.241 371.36 402.438 367.908C398.275 363.84 393.071 361.822 386.968 361.822H305.668C298.602 361.822 292.889 362.77 288.709 364.841L288.641 364.875L288.575 364.914C285.093 366.985 280.488 371.612 274.82 378.479L274.806 378.495L274.793 378.512C252.491 406.759 223.137 420.856 186.555 420.856C155.616 420.856 131.326 409.549 113.46 386.968C96.1098 363.618 86.7652 334.997 85.5121 301.004V295.544H397.366C404.759 295.544 410.959 293.194 415.791 288.406C420.583 283.655 423 277.833 423 271.056V251.378C423 176.041 402.407 115.552 361.037 70.1259C320.238 24.6336 262.291 2 187.5 2C117.76 2 61.7615 22.4379 19.7224 63.4763L19.7169 63.4816L19.7115 63.487C-21.69 104.525 -43.8848 160.956 -47.0527 232.549L-47.053 232.556L-47.9984 255.982L-48.0016 256.063L-47.9984 256.144L-47.0535 279.558C-47.0534 279.56 -47.0533 279.562 -47.0533 279.564C-44.5187 353.017 -22.6494 410.398 18.7661 451.45ZM262.521 124.265L262.531 124.278L262.542 124.291C281.075 146.335 290.433 175.513 290.433 212.022V212.833H85.5121V212.022C85.5121 175.498 94.5636 146.31 112.479 124.265C130.323 102.308 155.241 91.2704 187.5 91.2704C219.759 91.2704 244.677 102.308 262.521 124.265Z" stroke="#5E4399" stroke-width="4"/>
</svg>
