<svg width="203" height="304" viewBox="0 0 203 304" fill="none" xmlns="http://www.w3.org/2000/svg">
<path d="M123.242 17.7432C125.771 16.2966 127.758 17.3816 127.758 20.2747L128.3 215.744C128.3 218.637 126.313 222.073 123.965 223.338L31.8475 276.681C29.3188 278.128 27.332 277.043 27.332 274.15L26.7901 78.6804C26.7901 75.7872 28.7769 72.3516 31.125 71.0858L123.242 17.7432Z" fill="#F0EDF5"/>
<path d="M132.093 141.787L131.912 62.0447L131.732 9.96783C131.732 4.54315 127.938 2.37328 123.242 5.08562L31.125 58.4283C26.4289 61.1406 22.6358 67.831 22.6358 73.2557V104.538L22.8164 149.201V169.996V190.429L22.997 284.456C22.997 289.881 26.7901 292.051 31.4863 289.339L123.604 235.996C128.3 233.284 132.093 226.593 132.093 221.169V141.787ZM123.784 223.338L31.6669 276.681C29.1382 278.128 27.1514 277.043 27.1514 274.15L26.9707 188.078V167.645V146.85L26.7901 102.187V78.6804C26.7901 75.7872 28.777 72.3516 31.125 71.0858L123.242 17.7432C125.771 16.2966 127.758 17.3815 127.758 20.2747V64.3954L127.938 144.138L128.119 215.744C128.3 218.637 126.313 222.073 123.784 223.338Z" fill="#735BA8"/>
<path d="M122.52 0.56507C120.894 -0.339042 118.907 -0.15822 116.379 1.10754L24.2614 54.4502C19.5652 57.1625 15.7722 63.8529 15.7722 69.2776L16.314 280.478C16.314 283.191 17.2171 284.999 18.8427 285.903L25.7064 289.881C24.2614 288.977 23.1777 287.169 23.1777 284.456L22.6358 73.0749C22.6358 67.6502 26.4289 61.1406 31.125 58.2475L123.242 4.90481C125.59 3.81988 127.758 3.63905 129.383 4.54317L122.52 0.56507Z" fill="#55457A"/>
<path d="M79.1705 37.8145L63.2758 47.0364C62.9145 47.2173 62.5533 47.0364 62.5533 46.494C62.5533 45.9515 62.9145 45.409 63.2758 45.2282L79.3511 36.0063C79.7124 35.8254 80.0736 36.0063 80.0736 36.5487C79.893 37.0912 79.5318 37.6337 79.1705 37.8145Z" fill="#503F75"/>
<path d="M82.2411 35.283C82.2411 34.3789 82.9636 33.1131 84.0473 32.5706C84.9504 32.0282 85.8535 32.3898 85.8535 33.2939C85.8535 34.198 85.131 35.4638 84.0473 36.0063C82.9636 36.5487 82.2411 36.1871 82.2411 35.283Z" fill="#503F75"/>
<path d="M82.2411 35.283C82.2411 34.3789 82.9636 33.1131 84.0473 32.5706C84.9504 32.0282 85.8535 32.3898 85.8535 33.2939C85.8535 34.198 85.131 35.4638 84.0473 36.0063C82.9636 36.5487 82.2411 36.1871 82.2411 35.283Z" fill="#503F75"/>
<path d="M59.583 195.754C59.1235 195.447 58.3576 195.447 57.5918 195.907L2.75705 227.649C1.22536 228.569 0 230.716 0 232.402L0.15317 260.923C0.15317 261.843 0.459509 262.457 0.919017 262.763L2.14437 263.377C1.68487 263.07 1.37853 262.457 1.37853 261.537L1.22536 233.016C1.22536 231.176 2.45071 229.029 3.98241 228.262L58.6639 196.674C59.4298 196.214 60.1956 196.214 60.6551 196.521L59.583 195.754Z" fill="#55457A"/>
<path d="M58.664 196.587C60.1957 195.666 61.421 196.433 61.421 198.12L61.5742 226.641C61.5742 228.481 60.3488 230.628 58.8171 231.395L3.98243 263.289C2.45073 264.209 1.22537 263.443 1.22537 261.756L1.0722 233.235C1.0722 231.395 2.29756 229.248 3.82926 228.481L58.664 196.587Z" fill="#7E5ACC"/>
<path d="M20.0652 238.141V239.982L13.4789 243.815V234.001L19.9121 230.168V232.008L15.4701 234.615V236.761L19.4526 234.461V236.301L15.4701 238.602V240.902L20.0652 238.141Z" fill="white"/>
<path d="M21.4437 231.548L27.2642 228.174V229.861L21.4437 233.235V231.548ZM21.4437 235.075L27.2642 231.701V233.388L21.4437 236.761V235.075Z" fill="white"/>
<path d="M39.2115 222.041C39.671 222.348 39.9773 222.961 39.9773 224.188V228.481L38.1393 229.554V225.568C38.1393 224.954 37.9861 224.648 37.8329 224.341C37.6798 224.188 37.3734 224.188 36.9139 224.494C36.4544 224.801 36.1481 225.108 35.8417 225.568C35.5354 226.028 35.3822 226.641 35.3822 227.254V231.088L33.5442 232.161V228.174C33.5442 226.948 33.0847 226.641 32.3188 227.101C31.8593 227.408 31.553 227.714 31.2466 228.174C30.9403 228.634 30.7871 229.248 30.7871 229.861V233.695L28.9491 234.768V227.254L30.7871 226.181V227.101C31.0935 226.641 31.3998 226.181 31.7061 225.874C32.0125 225.568 32.472 225.261 32.9315 224.954C33.391 224.648 33.8505 224.494 34.1569 224.494C34.4632 224.494 34.7695 224.648 35.0759 224.954C35.3822 224.341 35.6886 223.881 36.1481 223.421C36.6076 222.961 37.0671 222.654 37.5266 222.348C38.1393 221.734 38.7519 221.734 39.2115 222.041Z" fill="white"/>
<path d="M43.0407 226.181C42.428 226.181 41.9685 226.028 41.6621 225.568C41.3558 225.108 41.2026 224.648 41.2026 223.881C41.2026 223.114 41.3558 222.348 41.6621 221.581C41.9685 220.814 42.428 220.047 43.0407 219.434C43.6534 218.821 44.266 218.207 44.8787 217.901C45.6446 217.441 46.1041 217.287 46.7167 217.287C47.1762 217.287 47.6358 217.594 47.7889 218.054L46.2572 219.894C45.9509 219.434 45.4914 219.281 44.7255 219.741C44.266 220.047 43.8065 220.507 43.5002 220.967C43.1938 221.581 43.0407 222.194 43.0407 222.808C43.0407 223.421 43.1938 223.881 43.5002 224.034C43.8065 224.188 44.266 224.188 44.7255 223.881C45.3382 223.574 45.7977 222.808 46.2572 222.041H47.7889C47.4826 222.808 47.1762 223.421 46.7167 224.034C46.2572 224.648 45.6446 225.261 44.8787 225.568C44.266 226.028 43.6534 226.181 43.0407 226.181Z" fill="white"/>
<path d="M52.8436 215.754V216.981L48.5548 219.434V218.514L50.6992 215.141C50.8523 214.834 51.1587 214.527 51.1587 214.374C51.3119 214.221 51.3119 214.067 51.3119 213.914C51.3119 213.761 51.3119 213.607 51.1587 213.607C51.0055 213.607 50.8523 213.607 50.546 213.761C50.2397 213.914 50.0865 214.067 49.9333 214.374C49.7802 214.527 49.627 214.834 49.4738 215.141L48.5548 214.987C48.708 214.527 49.0143 214.067 49.4738 213.607C49.7802 213.147 50.2397 212.84 50.8524 212.534C51.465 212.227 52.0777 212.074 52.384 212.074C52.6904 212.227 52.9967 212.534 52.9967 212.994C52.9967 213.301 52.9967 213.607 52.8436 213.914C52.6904 214.221 52.384 214.681 52.0777 215.294L50.8524 217.134L52.8436 215.754Z" fill="white"/>
<path d="M133.043 52.8394L133.949 53.3581C133.82 53.3581 133.82 53.3581 133.69 53.2284H133.561C133.172 53.2284 132.784 53.2284 132.395 53.4878L86.1561 80.3283C84.8609 81.1063 83.8247 82.9216 83.8247 84.3479V87.9786V136.214C83.8247 136.473 83.8247 136.603 83.8247 136.732C83.8247 136.862 83.8247 136.862 83.8247 136.862C83.8247 136.992 83.8247 136.992 83.9543 137.121C83.9543 137.121 83.9543 137.251 84.0838 137.251L84.2133 137.381C84.2133 137.51 84.3428 137.51 84.4723 137.51L83.5657 136.992C83.1771 136.732 82.9181 136.214 82.9181 135.436V88.3675V83.57C82.9181 82.014 83.9543 80.1987 85.2495 79.5504L131.488 52.8394C132.136 52.5801 132.654 52.5801 133.043 52.8394Z" fill="#55457A"/>
<path d="M134.856 106.65C134.856 108.206 133.82 110.022 132.525 110.67L101.958 128.434L86.1561 137.51C85.5085 137.899 84.8609 137.899 84.3428 137.64C84.2133 137.64 84.2133 137.51 84.0838 137.51L83.9542 137.381L83.8247 137.251C83.8247 137.251 83.8247 137.121 83.6952 136.992V136.862C83.6952 136.732 83.6952 136.473 83.6952 136.343V88.1082V84.4776C83.6952 82.9217 84.7314 81.1064 86.0266 80.458L132.266 53.7471C132.654 53.4878 133.172 53.3581 133.431 53.4878H133.561C133.69 53.4878 133.69 53.4878 133.82 53.6175C133.82 53.6175 133.82 53.6175 133.949 53.6175C134.338 53.8768 134.597 54.3954 134.597 55.1734L134.856 106.65Z" fill="#6A549C"/>
<path d="M123.199 47.3169L124.319 48.2245C124.189 48.2245 123.887 48.0949 123.757 47.9652L123.406 47.7653C123.018 47.7653 122.94 47.7059 122.551 47.9652L76.183 74.8058C74.8878 75.5838 73.8516 77.3991 73.8516 78.8254V82.456V130.691C73.8516 130.951 73.8516 131.08 73.8516 131.21C73.8516 131.34 73.8516 131.34 73.8516 131.34C73.8516 131.469 73.8516 131.469 73.9811 131.599C73.9811 131.599 73.9811 131.729 74.1106 131.729L74.2402 131.858C74.2402 131.988 74.3697 131.988 74.4992 131.988L73.5926 131.469C73.204 131.21 72.9449 130.691 72.9449 129.913V82.845V78.0474C72.9449 76.4914 73.9811 74.6761 75.2763 74.0278L121.515 47.3169C122.163 47.0576 122.811 47.0576 123.199 47.3169Z" fill="#55457A"/>
<path d="M124.883 100.945C124.883 102.501 123.847 104.316 122.551 104.965L91.9846 122.729L76.183 131.805C75.5354 132.194 74.8878 132.194 74.3697 131.935C74.2402 131.935 74.2402 131.805 74.1107 131.805L73.9811 131.676L73.8516 131.546C73.8516 131.546 73.8516 131.416 73.7221 131.287V131.157C73.7221 131.027 73.7221 130.768 73.7221 130.638V82.403V78.7724C73.7221 77.2164 74.7583 75.4011 76.0535 74.7528L122.292 48.0419C122.681 47.7825 123.199 47.6529 123.458 47.7825H123.588C123.717 47.7825 123.717 47.7825 123.847 47.9122C123.847 47.9122 123.847 47.9122 123.976 47.9122C124.365 48.1715 124.624 48.6902 124.624 49.4682L124.883 100.945Z" fill="#503F75"/>
<path d="M143.275 59.3227L144.181 59.8413C144.052 59.8413 144.052 59.8413 143.922 59.7117H143.793C143.404 59.7117 143.016 59.7117 142.627 59.971L96.2587 86.8116C94.9635 87.5896 93.9273 89.4049 93.9273 90.8312V94.4618V142.697C93.9273 142.956 93.9273 143.086 93.9273 143.216C93.9273 143.345 93.9273 143.345 93.9273 143.345C93.9273 143.475 93.9273 143.475 94.0569 143.605C94.0569 143.605 94.0569 143.734 94.1864 143.734L94.3159 143.864C94.3159 143.994 94.4454 143.994 94.5749 143.994L93.6683 143.475C93.2797 143.216 93.0207 142.697 93.0207 141.919V94.8508V90.0532C93.0207 88.4972 94.0569 86.6819 95.3521 86.0336L141.591 59.3227C142.239 59.0633 142.886 59.0633 143.275 59.3227Z" fill="#55457A"/>
<path d="M144.959 113.263C144.959 114.819 143.922 116.634 142.627 117.283L112.06 134.917L96.2587 143.994C95.6111 144.383 94.9635 144.383 94.4455 144.123C94.3159 144.123 94.3159 143.994 94.1864 143.994L94.0569 143.864L93.9274 143.734C93.9274 143.734 93.9274 143.605 93.7979 143.475V143.345C93.7979 143.216 93.7979 142.956 93.7979 142.827V94.5915V90.9608C93.7979 89.4049 94.834 87.5896 96.1292 86.9412L142.368 60.2303C142.757 59.971 143.275 59.8413 143.534 59.971H143.663C143.793 59.971 143.793 59.971 143.922 60.1007C143.922 60.1007 143.922 60.1007 144.052 60.1007C144.44 60.36 144.7 60.8787 144.7 61.6566L144.959 113.263Z" fill="#61C5BD"/>
<path d="M128.121 95.2398L118.536 94.4618C117.5 94.3321 116.723 95.1101 116.723 96.1474V108.855C116.723 110.411 118.666 111.189 119.702 109.892L129.287 97.9628C130.193 96.9254 129.546 95.3695 128.121 95.2398Z" fill="#F0EDF5"/>
<path d="M34.8601 162.304L6.5024 178.759C2.88995 180.748 0 178.578 0 174.057V127.224C0 122.523 2.88995 117.098 6.32177 115.109L34.6794 98.6544C38.1113 96.6653 41.0012 98.8352 41.0012 103.537V150.189C41.1818 154.89 38.2919 160.315 34.8601 162.304Z" fill="#55457A"/>
<path d="M36.4857 163.208L7.94738 179.663C4.51556 181.652 1.62561 179.482 1.62561 174.781V128.128C1.62561 123.427 4.51556 118.002 7.94738 116.013L36.3051 99.5584C39.7369 97.5694 42.6268 99.7393 42.6268 104.441V151.093C42.8074 155.794 39.9175 161.219 36.4857 163.208Z" fill="#7E5ACC"/>
<path d="M34.86 126.682L9.93418 141.148C8.48921 142.052 7.22485 141.148 7.22485 139.159V127.044C7.22485 125.054 8.48921 122.704 9.93418 121.98L34.86 107.515C36.305 106.611 37.5694 107.515 37.5694 109.504V121.619C37.5694 123.427 36.305 125.778 34.86 126.682Z" fill="white"/>
<path d="M18.9653 153.082L9.03107 159.049C7.94734 159.592 7.22485 159.049 7.22485 157.603V150.912C7.22485 149.466 8.12796 148.019 9.03107 147.296L19.1459 141.509C20.2296 140.967 20.9521 141.509 20.9521 142.956V149.646C20.9521 150.912 20.049 152.54 18.9653 153.082Z" fill="#61C5BD"/>
<path d="M35.5826 143.498L25.4677 149.285C24.384 149.827 23.6615 149.285 23.6615 147.838V141.148C23.6615 139.701 24.5646 138.255 25.4677 137.531L35.5826 131.745C36.6663 131.202 37.3888 131.745 37.3888 133.192V139.882C37.5694 141.329 36.6663 142.956 35.5826 143.498Z" fill="#61C5BD"/>
<path d="M18.9653 167.548L9.03107 173.334C7.94734 173.877 7.22485 173.334 7.22485 171.887V165.197C7.22485 163.75 8.12796 162.304 9.03107 161.581L19.1459 155.794C20.2296 155.252 20.9521 155.794 20.9521 157.241V163.931C20.9521 165.378 20.049 167.005 18.9653 167.548Z" fill="#61C5BD"/>
<path d="M35.5826 157.964L25.4677 163.75C24.384 164.293 23.6615 163.75 23.6615 162.304V155.613C23.6615 154.167 24.5646 152.72 25.4677 151.997L35.5826 146.211C36.6663 145.668 37.3888 146.211 37.3888 147.657V154.348C37.5694 155.613 36.6663 157.241 35.5826 157.964Z" fill="#FF6680"/>
<path d="M14.4497 152.72L13.5466 153.263V147.657L14.4497 147.115V152.72Z" fill="white"/>
<path d="M16.4366 148.2V149.466L11.5598 152.178V151.093L16.4366 148.2Z" fill="white"/>
<path d="M12.6436 167.729L11.9211 167.367L15.3529 161.4L16.0754 161.761L12.6436 167.729Z" fill="white"/>
<path d="M16.0754 165.016L15.3529 166.282L11.9211 164.293L12.6436 163.027L16.0754 165.016Z" fill="white"/>
<path d="M33.0539 138.616V139.882L28.1771 142.594V141.329L33.0539 138.616Z" fill="white"/>
<path d="M33.0539 151.635V152.901L28.1771 155.613V154.529L33.0539 151.635Z" fill="white"/>
<path d="M33.0539 154.167V155.433L28.1771 158.145V157.06L33.0539 154.167Z" fill="white"/>
<path d="M140.412 290.447C139.615 291.405 139.456 293.16 139.934 293.958C141.369 296.352 146.151 298.745 148.542 299.862C150.933 300.82 153.164 302.415 156.352 303.532C158.902 304.49 163.366 304.011 163.684 301.777C164.003 299.543 163.366 296.99 163.366 296.99L140.412 290.447Z" fill="#D94E6A"/>
<path d="M156.033 290.447C153.802 290.288 148.382 289.809 145.513 289.171C142.644 288.533 141.05 289.49 140.412 290.447C139.456 291.884 143.76 295.554 146.948 296.671C150.136 297.788 153.483 300.022 156.352 300.82C157.946 301.298 162.25 301.777 163.047 299.224C164.003 296.511 162.409 290.607 162.409 290.607L156.033 290.447Z" fill="#FF6680"/>
<path d="M169.901 279.916C169.104 280.873 168.944 282.628 169.423 283.426C170.857 285.82 175.799 287.894 178.03 289.33C180.74 290.926 181.218 293.001 184.406 294.118C186.956 295.075 191.419 294.596 191.738 292.362C192.057 290.128 191.419 287.575 191.419 287.575L169.901 279.916Z" fill="#D94E6A"/>
<path d="M183.928 279.756C181.537 279.916 178.189 280.394 175.32 279.277C172.451 278.16 170.538 278.958 169.901 279.916C168.944 281.352 173.248 285.181 176.436 286.139C180.58 287.416 181.537 290.607 184.406 291.405C186 291.884 190.304 292.362 191.101 289.809C192.057 287.096 190.463 281.192 190.463 281.192L183.928 279.756Z" fill="#FF6680"/>
<path d="M191.419 283.586C191.26 284.862 190.463 285.341 189.347 285.501C186.956 285.82 183.131 283.745 182.653 281.671C182.015 278.799 182.493 249.277 181.856 246.724C175.001 221.99 182.015 194.224 182.015 194.224L185.362 196.618L192.854 199.012C193.97 203.639 195.086 212.735 194.607 221.831C194.448 230.129 192.057 244.809 191.898 247.043C196.52 255.022 192.535 273.692 191.419 283.586Z" fill="#61C5BD"/>
<path d="M191.419 283.586C191.26 284.862 190.463 285.341 189.347 285.501L189.028 284.703C192.535 273.054 186 255.66 188.71 248.32C188.231 234.277 182.812 224.384 182.015 210.341C181.696 203.799 185.681 203.32 185.362 196.778L192.854 199.171C193.97 203.799 195.245 211.299 194.607 220.395C194.448 228.692 191.898 244.969 191.738 247.203C196.52 255.022 192.535 273.692 191.419 283.586Z" fill="#57B0A9"/>
<path d="M176.436 216.405C174.523 228.373 162.887 248.479 161.931 251.033C167.669 257.735 163.525 284.543 163.684 291.724V291.884C162.569 293.798 155.077 293.479 154.599 289.65C154.121 285.66 150.773 256.299 150.614 248.799C153.005 232.682 159.699 210.501 163.206 198.054C167.032 197.735 168.944 198.692 170.538 196.618C175.958 190.075 189.028 190.395 192.376 197.256C192.695 197.735 192.854 198.373 193.013 199.012C196.042 212.575 184.406 217.203 176.436 216.405Z" fill="#61C5BD"/>
<path d="M176.436 216.405C174.523 228.373 162.887 248.48 161.931 251.033C167.669 257.735 163.525 284.543 163.684 291.724V291.884C163.206 292.362 163.047 292.841 161.612 293.001C161.612 286.777 161.134 275.128 160.018 269.065C158.743 263.001 156.671 256.458 159.381 250.075C159.699 246.405 160.656 242.735 161.772 239.224C163.525 233.001 165.438 226.777 167.191 220.714C167.988 217.841 168.944 214.65 171.176 212.575C174.045 209.863 178.189 209.224 182.015 208.426C185.841 207.629 189.985 205.873 191.419 202.203C191.898 200.927 191.898 199.49 192.376 198.054C192.376 197.895 192.535 197.735 192.535 197.416C192.854 197.895 193.013 198.533 193.173 199.171C196.042 212.575 184.406 217.203 176.436 216.405Z" fill="#57B0A9"/>
<path d="M191.419 142.682C195.245 143.799 197.795 149.225 200.664 156.884C203.852 165.501 203.374 176.033 201.621 180.501C200.824 183.852 173.726 176.99 173.726 176.99C173.726 176.99 172.77 170.448 173.408 170.448C174.045 170.288 185.522 168.533 193.173 170.448C188.55 155.927 189.825 151.618 189.825 151.618L191.419 142.682Z" fill="#7E5ACC"/>
<path d="M189.347 172.682C189.028 176.352 191.579 185.927 192.854 199.012C190.782 206.99 175.161 206.352 167.032 203.639C163.844 202.522 161.772 201.086 162.09 199.809C164.641 189.118 164.8 182.097 161.772 173.001C159.54 166.459 158.265 159.278 157.627 155.767C157.468 154.331 157.308 153.533 157.308 153.533L169.582 147.629L178.668 143.161C178.668 143.161 187.753 142.044 191.101 142.682C193.651 143.161 197.158 147.629 196.998 149.384C196.201 157.682 189.666 169.012 189.347 172.682Z" fill="#7E5ACC"/>
<path d="M182.653 135.661C182.653 135.98 182.653 136.14 182.493 136.459C182.334 137.735 182.174 138.214 182.174 138.693C182.174 139.331 182.334 140.129 182.334 143.64C181.377 149.544 171.176 148.905 171.017 147.629C170.857 145.714 169.741 142.682 170.22 141.086C169.104 141.086 166.872 141.565 165.119 141.246C163.684 140.927 162.728 139.81 161.931 135.661C160.975 131.352 161.453 129.916 162.25 128.959C162.887 128.001 162.25 125.448 162.25 124.172C162.409 122.416 163.525 120.023 164.481 118.108C164.481 117.948 164.641 117.948 164.641 117.789C167.669 112.203 177.233 114.916 182.653 118.906C184.884 120.501 186.319 122.097 186.638 123.533C187.594 128.48 183.29 131.193 182.653 135.661Z" fill="#F2CCD0"/>
<path d="M187.434 126.565C186 129.757 185.362 130.554 182.812 135.98C182.653 136.14 182.653 136.299 182.493 136.459C182.015 136.937 181.377 137.097 180.58 137.257C179.146 137.576 177.392 137.416 176.595 136.299C175.32 134.544 175.798 129.118 173.248 128.161C170.698 127.363 170.379 131.352 170.379 132.629C169.901 132.629 168.944 131.831 168.466 131.512C168.147 131.193 169.423 128.959 168.147 126.884C167.669 126.086 167.51 125.129 167.51 124.012C167.51 121.618 166.394 119.384 164.322 118.108C164.322 118.108 164.322 118.108 164.163 118.108C163.047 117.469 161.293 115.874 162.09 114.597C163.525 112.203 170.379 109.81 176.914 111.725C179.465 112.363 182.015 113.799 184.087 116.033C184.087 116.033 184.246 116.033 184.246 116.193H184.406C189.347 118.906 188.55 124.012 187.434 126.565Z" fill="#625D5D"/>
<path d="M171.017 183.054C170.538 187.203 168.466 191.671 167.988 195.661C167.669 198.373 167.351 201.086 167.032 203.639C163.844 202.522 161.772 201.086 162.09 199.809C164.641 189.118 164.8 182.097 161.772 173.001C159.54 166.459 158.265 159.278 157.627 155.767C158.105 154.012 158.902 152.895 160.815 154.65C164.163 157.522 161.931 162.629 163.525 166.778C164.322 169.171 165.757 170.927 167.988 173.958C170.06 176.831 171.495 179.703 171.017 183.054Z" fill="#8A63E0"/>
<path d="M128.617 119.544C127.82 117.948 130.37 114.916 131.008 113.799C131.327 113.161 131.008 111.246 130.689 108.852C129.892 107.416 128.458 105.023 128.139 105.182C127.661 105.82 127.661 107.735 128.776 109.012C128.617 110.289 128.936 111.246 128.458 111.725C126.385 109.969 126.704 107.735 125.588 106.14C125.11 105.342 124.473 104.384 123.994 103.427C123.516 101.991 123.197 101.672 122.719 101.033C122.401 100.395 121.285 100.714 121.444 101.672C121.604 102.15 121.763 102.948 122.401 103.906C122.879 105.182 123.197 106.618 123.357 106.937C123.676 107.576 123.835 108.214 123.835 108.214C123.676 108.374 122.879 108.852 122.56 109.172C122.082 109.491 122.082 110.129 121.444 110.608C121.125 110.927 120.488 111.086 120.169 111.406C119.691 111.884 118.734 113.32 119.85 115.395C121.763 119.065 123.994 120.98 123.994 120.98L128.617 119.544Z" fill="#F2CCD0"/>
<path d="M164.003 164.863C163.844 167.895 162.25 169.81 158.902 168.852C150.933 166.459 143.919 158.161 134.196 147.629C131.327 142.044 123.038 126.086 124.313 120.98C124.632 120.82 124.951 120.342 125.429 120.023C126.704 118.906 128.458 117.469 129.573 118.906C130.689 125.288 141.688 131.991 142.644 142.842C146.31 145.554 148.701 148.586 157.627 152.895C161.931 154.81 164.322 160.714 164.003 164.863Z" fill="#8A63E0"/>
<path d="M170.379 142.682C173.248 142.682 179.783 144.278 182.334 139.969C183.131 140.448 185.203 142.682 185.362 143.48C185.362 147.788 174.842 152.256 168.466 147.948C168.307 146.352 170.379 142.682 170.379 142.682Z" fill="#8A63E0"/>
<path d="M164.003 164.863C163.844 167.895 162.25 169.81 158.902 168.852C150.933 166.459 143.919 158.161 134.196 147.629C131.327 142.044 123.038 126.086 124.313 120.98C124.632 120.82 124.951 120.342 125.429 120.023C125.588 122.097 129.414 121.937 130.052 124.012C131.646 128.48 132.921 130.076 134.993 134.544C136.746 138.374 136.587 143.799 139.137 144.757C144.876 146.831 147.426 154.65 152.845 157.363C155.396 158.639 158.105 159.597 160.337 161.193C161.931 161.99 163.206 163.267 164.003 164.863Z" fill="#7E5ACC"/>
<path d="M187.435 126.565C186 129.757 185.362 130.554 182.812 135.98C182.653 136.139 182.653 136.299 182.493 136.459C182.015 136.937 181.377 137.097 180.58 137.256C180.74 136.937 180.899 136.778 180.899 136.459C181.377 134.863 181.537 133.108 181.377 131.512C181.059 128.64 182.174 128.48 182.812 125.767C183.131 124.491 180.102 121.459 184.406 119.384C184.725 119.225 182.971 116.352 179.783 114.437C177.074 112.842 176.596 111.884 177.074 111.565C179.624 112.203 182.174 113.64 184.247 115.874C184.247 115.874 184.406 115.874 184.406 116.033C184.406 116.033 184.565 116.193 184.565 116.033C189.347 118.906 188.55 124.012 187.435 126.565Z" fill="#524E4E"/>
</svg>
